<?xml version="1.0" standalone="no"?>
<!DOCTYPE svg PUBLIC "-//W3C//DTD SVG 20010904//EN"
 "http://www.w3.org/TR/2001/REC-SVG-20010904/DTD/svg10.dtd">
<svg version="1.0" xmlns="http://www.w3.org/2000/svg"
 width="200.000000pt" height="94.000000pt" viewBox="0 0 200.000000 94.000000"
 preserveAspectRatio="xMidYMid meet">
<metadata>
Created by potrace 1.10, written by Peter Selinger 2001-2011
</metadata>
<g transform="translate(0.000000,94.000000) scale(0.100000,-0.100000)"
fill="#000000" stroke="none">
<path d="M1013 631 c-12 -11 -24 -29 -27 -39 -6 -17 -17 -20 -59 -13 -5 0 -5
6 -1 13 5 7 2 9 -8 5 -9 -3 -24 3 -34 14 -21 24 -51 25 -58 2 -10 -32 -4 -106
11 -141 8 -19 12 -41 9 -49 -3 -8 -2 -12 2 -9 4 2 14 1 22 -4 16 -10 7 -15
-34 -22 -37 -6 -28 -28 19 -49 69 -30 160 -16 233 38 39 29 58 64 67 125 4 26
13 53 21 59 15 12 18 47 6 65 -4 7 -38 15 -77 18 -62 7 -72 5 -92 -13z m97
-13 c16 -10 24 -10 40 0 25 15 26 5 3 -21 -17 -19 -17 -20 5 -8 27 15 29 1 2
-19 -14 -10 -20 -26 -20 -51 0 -49 -53 -126 -105 -153 -47 -25 -143 -28 -190
-6 l-30 14 47 6 c47 6 91 30 56 30 -9 0 -26 9 -39 20 -22 17 -22 19 -5 20 17
0 16 3 -8 25 -30 28 -36 58 -8 48 16 -6 16 -5 0 14 -18 19 -25 83 -10 83 4 0
12 -8 19 -18 12 -20 92 -62 118 -62 9 0 15 9 15 23 0 52 64 84 110 55z"/>
</g>
</svg>
